<svg width="242" height="242" viewBox="0 0 242 242" fill="none" xmlns="http://www.w3.org/2000/svg">
<mask id="mask0_907_249" style="mask-type:alpha" maskUnits="userSpaceOnUse" x="0" y="0" width="242" height="242">
<rect width="242" height="242" fill="#D9D9D9"/>
</mask>
<g mask="url(#mask0_907_249)">
<path d="M50.4167 221.834C44.8708 221.834 40.1233 219.859 36.174 215.91C32.2247 211.961 30.25 207.213 30.25 201.667V60.5008C30.25 54.955 32.2247 50.2074 36.174 46.2581C40.1233 42.3088 44.8708 40.3341 50.4167 40.3341H60.5V20.1675H80.6667V40.3341H161.333V20.1675H181.5V40.3341H191.583C197.129 40.3341 201.877 42.3088 205.826 46.2581C209.775 50.2074 211.75 54.955 211.75 60.5008V201.667C211.75 207.213 209.775 211.961 205.826 215.91C201.877 219.859 197.129 221.834 191.583 221.834H50.4167ZM50.4167 201.667H191.583V100.834H50.4167V201.667ZM50.4167 80.6675H191.583V60.5008H50.4167V80.6675ZM70.5833 141.167V121.001H171.417V141.167H70.5833ZM70.5833 181.501V161.334H141.167V181.501H70.5833Z" fill="#97ABE0"/>
</g>
</svg>
